<?xml version="1.0" encoding="utf-8"?>
<!-- Generator: Adobe Illustrator 18.1.1, SVG Export Plug-In . SVG Version: 6.00 Build 0)  -->
<svg version="1.1" id="Layer_1" xmlns="http://www.w3.org/2000/svg" xmlns:xlink="http://www.w3.org/1999/xlink" x="0px" y="0px"
	 viewBox="0 0 38 26" enable-background="new 0 0 38 26" xml:space="preserve">
<g>
	<path fill="#0977DF" d="M19,11.8c-2,0-3.7-1.6-4.4-4c0-0.1,0-0.3,0.1-0.4c0.1-0.1,0.2-0.2,0.4-0.2h7.8c0.2,0,0.3,0.1,0.4,0.2
		c0.1,0.1,0.1,0.3,0.1,0.4C22.7,10.2,21,11.8,19,11.8z M15.8,8.1c0.7,1.6,1.9,2.7,3.2,2.7c1.3,0,2.6-1.1,3.2-2.7H15.8z"/>
	<path fill="#0977DF" d="M24.9,24c-0.3,0-0.5-0.2-0.5-0.5v-3.7c0-2.8-1.5-5.4-3.7-6.3c-0.2-0.1-0.3-0.3-0.3-0.5
		c0-0.2,0.1-0.4,0.3-0.5c2.2-0.9,3.7-3.5,3.7-6.3V2.5c0-0.3,0.2-0.5,0.5-0.5c0.3,0,0.5,0.2,0.5,0.5v3.7c0,2.9-1.3,5.4-3.4,6.7
		c2.1,1.3,3.4,3.9,3.4,6.7v3.7C25.4,23.7,25.2,24,24.9,24z"/>
	<path fill="#0977DF" d="M13.1,24c-0.3,0-0.5-0.2-0.5-0.5v-3.7c0-2.9,1.3-5.4,3.4-6.7c-2.1-1.3-3.4-3.9-3.4-6.7V2.5
		c0-0.3,0.2-0.5,0.5-0.5c0.3,0,0.5,0.2,0.5,0.5v3.7c0,2.8,1.5,5.4,3.7,6.3c0.2,0.1,0.3,0.3,0.3,0.5c0,0.2-0.1,0.4-0.3,0.5
		c-2.2,0.9-3.7,3.5-3.7,6.3v3.7C13.6,23.7,13.4,24,13.1,24z"/>
	<path fill="#0977DF" d="M23,22.6H15c-0.3,0-0.5-0.2-0.5-0.5c0-3.2,3.4-6.1,4.5-6.1c1,0,4.5,2.9,4.5,6.1
		C23.5,22.3,23.3,22.6,23,22.6z M15.6,21.6h6.9c-0.3-2.5-3-4.5-3.5-4.6C18.5,17.1,15.9,19.1,15.6,21.6z"/>
	<path fill="#0977DF" d="M26.5,1.5h-15C11.2,1.5,11,1.3,11,1c0-0.3,0.2-0.5,0.5-0.5h15C26.8,0.5,27,0.7,27,1
		C27,1.3,26.8,1.5,26.5,1.5z"/>
	<path fill="#0977DF" d="M26.5,25.5h-15c-0.3,0-0.5-0.2-0.5-0.5c0-0.3,0.2-0.5,0.5-0.5h15c0.3,0,0.5,0.2,0.5,0.5
		C27,25.3,26.8,25.5,26.5,25.5z"/>
</g>
</svg>
