<?xml version="1.0" encoding="utf-8"?>
<!-- Generator: Adobe Illustrator 18.1.1, SVG Export Plug-In . SVG Version: 6.00 Build 0)  -->
<svg version="1.1" id="Layer_1" xmlns="http://www.w3.org/2000/svg" xmlns:xlink="http://www.w3.org/1999/xlink" x="0px" y="0px"
	 viewBox="0 0 38 26" enable-background="new 0 0 38 26" xml:space="preserve">
<g>
	<path fill="#0977DF" d="M22.6,21.5c-0.3,0-0.5-0.2-0.5-0.5v0c0-0.3,0.2-0.5,0.5-0.5s0.5,0.2,0.5,0.5C23.1,21.3,22.9,21.5,22.6,21.5
		z"/>
	<path fill="#0977DF" d="M25.3,21.5H11.7c-0.3,0-0.5-0.2-0.5-0.5c0-0.3,0.2-0.5,0.5-0.5h13.6c0.3,0,0.5,0.2,0.5,0.5
		C25.8,21.3,25.6,21.5,25.3,21.5z"/>
	<path fill="#0977DF" d="M20,12.9h-6.8c-0.5,0-1.2-0.1-1.4-0.5c-0.3-0.5,0.1-1,0.2-1.2l1.9-2.3c0.6-0.6,1.5-0.8,2-0.8H20
		c0.6,0,1.2,0.5,1.2,1.1v2.6C21.2,12.4,20.7,12.9,20,12.9z M12.8,11.9c0.1,0,0.2,0,0.5,0H20c0.1,0,0.2-0.1,0.2-0.1V9.2
		c0-0.1-0.1-0.1-0.2-0.1h-4.1c-0.3,0-0.9,0.1-1.2,0.4l-1.8,2.2C12.8,11.8,12.8,11.9,12.8,11.9z"/>
	<path fill="#0977DF" d="M34.7,21.5c-0.3,0-0.5-0.2-0.5-0.5c0-0.3,0.2-0.5,0.5-0.5H36c0.1,0,0.9-0.1,0.9-1.4v-2.2l-4-2H22.6
		c-0.3,0-0.5-0.2-0.5-0.5l0-0.1c0-2.4,0-4.8,0-6.3c0-0.4-0.5-0.5-0.6-0.5l-6.1,0c-1.4,0-2.2,0.8-2.2,0.9l-3.7,4.2
		c-0.1,0.1-0.2,0.1-0.3,0.2c-2.2,0.4-6,1.2-6.9,1.7c-0.3,0.4-0.5,1.7-0.5,2.7h2.2c0.3,0,0.5,0.2,0.5,0.5s-0.2,0.5-0.5,0.5H1.2
		c-0.1,0-0.3-0.1-0.4-0.2c-0.1-0.1-0.1-0.2-0.1-0.4c0-0.5,0.1-3,0.8-3.9c0,0,0.1-0.1,0.1-0.1c1.1-0.8,6.1-1.7,7.3-1.9l3.6-4.1
		c0-0.1,1.1-1.2,3-1.2h6.1c0.6,0,1.6,0.4,1.6,1.5c0,1.4,0,3.7,0,5.9H33c0.1,0,0.2,0,0.2,0.1l4.4,2.2c0.2,0.1,0.3,0.3,0.3,0.4v2.5
		c0,1.8-1.2,2.4-1.9,2.4H34.7z"/>
	<path fill="#0977DF" d="M2.3,21.5c0,0-0.1,0-0.1,0c-0.6-0.2-1.2-0.7-1.6-1.3c-0.3-0.5-0.6-1.4-0.3-2.6c0.1-0.2,0.3-0.4,0.5-0.4h3.2
		c0.3,0,0.5,0.2,0.5,0.5s-0.2,0.5-0.5,0.5H1.1c-0.1,0.7,0.1,1.2,0.3,1.5c0.3,0.5,0.7,0.8,1,0.9c0.3,0.1,0.4,0.3,0.4,0.6
		C2.7,21.4,2.5,21.5,2.3,21.5z"/>
	<path fill="#0977DF" d="M7,24.8c-2.1,0-3.8-1.6-3.8-3.7c0-2,1.7-3.7,3.8-3.7c2.1,0,3.8,1.6,3.8,3.7C10.8,23.2,9.1,24.8,7,24.8z
		 M7,18.5c-1.5,0-2.7,1.2-2.7,2.7c0,1.5,1.2,2.7,2.7,2.7c1.5,0,2.7-1.2,2.7-2.7C9.8,19.7,8.5,18.5,7,18.5z"/>
	<path fill="#0977DF" d="M30,24.8c-2.1,0-3.8-1.6-3.8-3.7c0-2,1.7-3.7,3.8-3.7c2.1,0,3.8,1.6,3.8,3.7C33.7,23.2,32.1,24.8,30,24.8z
		 M30,18.5c-1.5,0-2.7,1.2-2.7,2.7c0,1.5,1.2,2.7,2.7,2.7c1.5,0,2.7-1.2,2.7-2.7C32.7,19.7,31.5,18.5,30,18.5z"/>
	<path fill="#0977DF" d="M20.3,6.4c-0.3,0-0.5-0.2-0.5-0.5V5.1c0,0,0,0,0,0H18l0,0.8c0,0.3-0.2,0.5-0.5,0.5c-0.3,0-0.5-0.2-0.5-0.5
		V5.1c0-0.6,0.4-1,0.9-1h2.1c0.5,0,0.9,0.4,0.9,1v0.8C20.8,6.2,20.6,6.4,20.3,6.4z"/>
	<path fill="#0977DF" d="M30,13.6c-0.2,0-0.4-0.2-0.5-0.4c-0.1-0.5-0.3-0.9-0.7-1.2c-0.2-0.2-0.2-0.4-0.1-0.6
		c1.2-1.7,5.6-7.8,5.7-7.9c0.2-0.3,0.3-0.9,0-1.1c-0.6-0.4-1.2,0.3-1.2,0.3c-1.8,2.2-6.4,7.2-7.7,8.7c0,0-0.1,0.1-0.2,0.1
		c-0.4,0.2-0.8,0.5-1,0.8c-0.2,0.2-0.5,0.3-0.7,0.1c-0.2-0.2-0.3-0.5-0.1-0.7c0.3-0.5,0.8-0.8,1.3-1.1C26.2,9,30.6,4.1,32.4,2
		c0.4-0.5,1.5-1.2,2.5-0.5c0.9,0.5,0.8,1.6,0.3,2.4c0,0.1-4.2,5.8-5.5,7.7c0.4,0.4,0.6,0.9,0.7,1.5C30.6,13.2,30.4,13.5,30,13.6
		C30.1,13.6,30,13.6,30,13.6z"/>
	<path fill="#0977DF" d="M35.4,13.3c-1,0-1.8-0.7-2-1.7c-0.1-0.9,0.4-1.8,1.2-2.1l-0.8-5.1c0-0.3,0.1-0.5,0.4-0.6
		c0.3,0,0.5,0.1,0.6,0.4l0.9,5.6c0,0.1,0,0.3-0.1,0.4c-0.1,0.1-0.2,0.2-0.3,0.2c-0.5,0.1-0.9,0.6-0.8,1.1c0.1,0.5,0.6,0.9,1.1,0.8
		c0.5-0.1,0.9-0.6,0.8-1.1c0-0.3,0.1-0.5,0.4-0.6c0.3,0,0.5,0.1,0.6,0.4c0.2,1.1-0.6,2.1-1.7,2.2C35.6,13.3,35.5,13.3,35.4,13.3z"/>
</g>
</svg>
