<svg version="1.1" id="Layer_1" xmlns="http://www.w3.org/2000/svg" xmlns:xlink="http://www.w3.org/1999/xlink" x="0px" y="0px" viewBox="0 0 25 21" enable-background="new 0 0 25 21" xml:space="preserve">
                                <g>
                                <path fill="#0977DF" d="M5.8,12.8c-0.1,0-0.3,0-0.4-0.1L0.2,7.5C0,7.3,0,7,0.2,6.8l5.2-5.1c0.2-0.2,0.5-0.2,0.7,0l5.2,5.1
                                                c0.2,0.2,0.2,0.5,0,0.7c-0.2,0.2-0.5,0.2-0.7,0L5.8,2.7L1.3,7.2L6.1,12c0.2,0.2,0.2,0.5,0,0.7C6,12.8,5.9,12.8,5.8,12.8z"></path>
                                <path fill="#0977DF" d="M12.5,19.5c-0.1,0-0.3,0-0.4-0.1l-5.2-5.1c-0.2-0.2-0.2-0.5,0-0.7l5.2-5.1c0.2-0.2,0.5-0.2,0.7,0l5.2,5.1
                                                c0.2,0.2,0.2,0.5,0,0.7l-5.2,5.1C12.8,19.4,12.6,19.5,12.5,19.5z M8,13.8l4.5,4.4l4.5-4.4l-4.5-4.4L8,13.8z"></path>
                                <path fill="#0977DF" d="M19.2,12.8c-0.1,0-0.3,0-0.4-0.1c-0.2-0.2-0.2-0.5,0-0.7l4.8-4.8l-4.5-4.4l-4.9,4.8c-0.2,0.2-0.5,0.2-0.7,0
                                                c-0.2-0.2-0.2-0.5,0-0.7l5.2-5.1c0.2-0.2,0.5-0.2,0.7,0l5.2,5.1C25,7,25,7.3,24.8,7.5l-5.2,5.1C19.5,12.8,19.4,12.8,19.2,12.8z"></path>
                                        </g>
                                    </svg>