<svg xmlns="http://www.w3.org/2000/svg" width="13" height="21" viewBox="0 0 13 21">
    <path fill="#0978DF" fill-rule="evenodd" d="M10.5 21c1.379 0 2.5-1.121 2.5-2.5v-16C13 1.121 11.879 0 10.5 0h-8A2.502 2.502 0 0 0 0 2.5v16C0 19.879 1.121 21 2.5 21h8zm-8-20h8c.827 0 1.5.673 1.5 1.5v16c0 .827-.673 1.5-1.5 1.5h-8c-.827 0-1.5-.673-1.5-1.5v-16C1 1.673 1.673 1 2.5 1zm-.018 13.7h8V3.736h-8V14.7zm8.5 1h-9a.5.5 0 0 1-.5-.5V3.236a.5.5 0 0 1 .5-.5h9a.5.5 0 0 1 .5.5V15.2c0 .277-.223.5-.5.5zM6.5 17.147c-.275 0-.5.225-.5.5s.225.5.5.5.5-.225.5-.5-.225-.5-.5-.5m0 2c-.827 0-1.5-.673-1.5-1.5s.673-1.5 1.5-1.5 1.5.673 1.5 1.5-.673 1.5-1.5 1.5"></path>
</svg>