<?xml version="1.0" encoding="utf-8"?>
<!-- Generator: Adobe Illustrator 18.1.1, SVG Export Plug-In . SVG Version: 6.00 Build 0)  -->
<svg version="1.1" id="Layer_1" xmlns="http://www.w3.org/2000/svg" xmlns:xlink="http://www.w3.org/1999/xlink" x="0px" y="0px"
	 viewBox="0 0 38 26" enable-background="new 0 0 38 26" xml:space="preserve">
<g>
	<path fill="#0977DF" d="M10.6,24H8.2c-0.7,0-1.3-0.6-1.3-1.3v-1.9c0-0.3,0.2-0.5,0.5-0.5s0.5,0.2,0.5,0.5v1.9
		c0,0.2,0.1,0.3,0.3,0.3h2.4c0.1,0,0.2-0.1,0.3-0.2c0.1-0.3,0.4-0.4,0.6-0.3c0.3,0.1,0.4,0.4,0.3,0.6C11.7,23.6,11.2,24,10.6,24z"/>
	<path fill="#0977DF" d="M10.9,17c-0.4,0-0.8,0-1.2-0.1c-0.6-0.1-1.4-0.4-1.6-0.9c-0.1-0.3-0.2-1.4,0.2-2.1c0.3-0.5,1.1-0.4,1.7-0.3
		c0.8,0.2,3.1,1,3.1,2.1c0,0.3-0.1,0.6-0.4,0.8C12.4,16.9,11.8,17,10.9,17z M9.2,14.5c-0.1,0.4-0.1,1,0,1.2c0,0,0.3,0.2,0.8,0.3
		c1.6,0.2,2.2-0.1,2.3-0.2C11.9,15.3,9.8,14.4,9.2,14.5z M12.2,15.8L12.2,15.8L12.2,15.8z"/>
	<path fill="#0977DF" d="M29.8,24h-2.4c-0.6,0-1.1-0.4-1.2-0.9c-0.1-0.3,0.1-0.5,0.3-0.6c0.3-0.1,0.5,0.1,0.6,0.3
		c0,0.1,0.2,0.2,0.3,0.2h2.4c0.2,0,0.3-0.1,0.3-0.3v-1.9c0-0.3,0.2-0.5,0.5-0.5c0.3,0,0.5,0.2,0.5,0.5v1.9
		C31.1,23.4,30.5,24,29.8,24z"/>
	<path fill="#0977DF" d="M27.1,17c-0.8,0-1.5-0.2-1.9-0.5c-0.2-0.2-0.4-0.5-0.4-0.8c0-1.1,2.3-1.9,3.1-2.1c0.6-0.1,1.4-0.3,1.7,0.3
		c0.4,0.7,0.3,1.8,0.2,2.1c-0.2,0.5-1,0.8-1.6,0.9C27.8,17,27.4,17,27.1,17z M25.8,15.8c0.1,0.1,0.7,0.4,2.3,0.2
		c0.4-0.1,0.7-0.2,0.8-0.3c0-0.1,0.1-0.8-0.1-1.2C28.2,14.5,26.1,15.3,25.8,15.8z"/>
	<path fill="#0977DF" d="M19,17.9l-0.4,0c-0.7,0-2.2,0-3-0.1c-1.2-0.1-2.3-1.1-2.3-1.6c0-0.5,0.8-1,0.9-1c0.4-0.2,1.9-0.3,4.7-0.3
		s4.4,0.1,4.7,0.2c0.2,0.1,0.9,0.5,0.9,1c0,0.5-1.1,1.5-2.2,1.6c-0.8,0.1-2.3,0.1-3,0.1L19,17.9z M14.5,16.2
		c0.2,0.2,0.7,0.6,1.2,0.6c0.8,0.1,2.3,0.1,3,0.1l0.3,0l0.3,0c0.7,0,2.2,0,3-0.1c0.6,0,1-0.4,1.2-0.6c-0.1-0.1-0.2-0.1-0.3-0.2
		c-0.2,0-1.5-0.1-4.3-0.1S14.9,16,14.7,16C14.6,16.1,14.5,16.1,14.5,16.2z M23.7,16.3L23.7,16.3L23.7,16.3z M14.3,16.3L14.3,16.3
		L14.3,16.3z"/>
	<path fill="#0977DF" d="M26.8,22.3c-0.2,0-0.4,0-0.6,0l-0.1,0c-0.3,0-0.5-0.2-0.7-0.3c0,0-0.1-0.1-0.1-0.1c0,0-0.1,0-0.2,0H13
		c-0.1,0-0.2,0-0.2,0c0,0-0.1,0.1-0.1,0.1c-0.1,0.1-0.3,0.3-0.7,0.3l-0.1,0c-3.8,0-4.4-0.3-4.6-0.7C7.1,21.4,7,21.2,7,21.1
		C7,21,7,21,7,21c-0.2-0.5-0.2-1.2-0.3-2.5c0-0.5-0.1-4.4,0.1-4.8C6.9,13.5,7,13.4,7,13.4c0,0,0.1-0.1,0.1-0.3
		c0.3-0.6,0.7-1.7,1.2-2.3c0.2-0.2,0.5-0.3,0.7-0.1c0.2,0.2,0.3,0.5,0.1,0.7c-0.4,0.5-0.8,1.6-1,2.1c-0.1,0.2-0.1,0.3-0.1,0.3
		c-0.1,0.1-0.1,0.2-0.2,0.4c0,0.5-0.1,2.5,0,4.2c0.1,1.3,0.1,1.9,0.3,2.3c0,0,0,0,0,0.1C8,20.9,8,21,8.1,21.1c0,0,0.4,0.2,3.2,0.2
		c0.2,0,0.4,0,0.6,0l0.1,0c0,0,0,0,0-0.1c0.1-0.1,0.1-0.1,0.2-0.2c0.2-0.1,0.5-0.2,0.7-0.2h12c0.3,0,0.5,0.1,0.7,0.2
		c0.1,0,0.1,0.1,0.2,0.2c0,0,0.1,0.1,0.1,0.1l0.1,0c3.2,0,3.8-0.2,3.8-0.3c0,0,0.1-0.1,0.1-0.3c0,0,0,0,0-0.1c0.1-0.4,0.2-1,0.3-2.3
		c0.1-1.7,0-3.7,0-4.2c-0.1-0.1-0.2-0.2-0.2-0.4c0,0-0.1-0.2-0.2-0.3c-0.2-0.5-0.7-1.6-1-2.1c-0.2-0.2-0.1-0.5,0.1-0.7
		c0.2-0.2,0.5-0.1,0.7,0.1c0.4,0.6,0.9,1.7,1.2,2.3c0.1,0.1,0.1,0.2,0.1,0.3c0,0,0.1,0.1,0.2,0.2c0.3,0.4,0.2,4.3,0.2,4.8
		c-0.1,1.4-0.1,2-0.3,2.5c0,0,0,0.1,0,0.1c-0.1,0.2-0.2,0.4-0.3,0.6C30.5,22,30,22.3,26.8,22.3z"/>
	<path fill="#0977DF" d="M30.1,10.9c-0.3,0-0.5-0.2-0.5-0.5c0-0.3,0.2-0.5,0.5-0.5c0.4,0,0.7-0.1,1-0.2c0,0,0-0.1,0-0.4
		c-0.4-0.2-0.9-0.2-1.4-0.2l0,0.6c0,0.2-0.2,0.4-0.4,0.5l-0.5,0.1c-0.2,0.1-0.5-0.1-0.6-0.3c-0.8-2-2.3-4.5-2.7-5
		C25,5,22.6,4.9,19,4.8c-3.6,0-6,0.2-6.5,0.3c-0.3,0.4-1.9,2.9-2.7,5c-0.1,0.2-0.3,0.3-0.6,0.3l-0.6-0.1C8.4,10.2,8.2,10,8.2,9.8
		l0-0.6c-0.4,0-1,0-1.4,0.2c0,0.2,0.1,0.4,0.1,0.4c0.3,0.1,0.6,0.2,0.9,0.2c0.3,0,0.5,0.3,0.5,0.5c0,0.3-0.3,0.5-0.5,0.5
		c-0.5,0-0.9-0.1-1.3-0.3c-0.3-0.1-0.7-0.5-0.6-1.5c0-0.2,0.1-0.4,0.3-0.5C6.9,8.1,8,8.1,8.4,8.2c0.4,0,0.7,0.3,0.8,0.7
		c0.9-2,2.4-4.3,2.6-4.6C12.3,4,16,3.9,19,3.8c3,0,6.7,0.1,7.2,0.5c0.3,0.2,1.7,2.6,2.6,4.5c0.1-0.4,0.4-0.7,0.8-0.7
		c0.4,0,1.5-0.1,2.2,0.4c0.2,0.2,0.3,0.3,0.3,0.5c0,0.9-0.3,1.3-0.6,1.5C31.1,10.8,30.7,10.9,30.1,10.9
		C30.2,10.9,30.1,10.9,30.1,10.9z M31.1,9.2C31.1,9.2,31.1,9.2,31.1,9.2C31.1,9.2,31.1,9.2,31.1,9.2z M6.9,9.1
		C6.9,9.1,6.9,9.1,6.9,9.1C6.9,9.1,6.9,9.1,6.9,9.1z M8.3,9.2C8.3,9.2,8.3,9.2,8.3,9.2C8.3,9.2,8.3,9.2,8.3,9.2z M29.7,9.2
		C29.7,9.2,29.7,9.2,29.7,9.2C29.7,9.2,29.7,9.2,29.7,9.2z M8.2,9.1C8.2,9.1,8.2,9.1,8.2,9.1L8.2,9.1z M29.8,9.1L29.8,9.1
		C29.8,9.1,29.8,9.1,29.8,9.1z"/>
	<path fill="#0977DF" d="M19,11.5c-4,0-8,0-8.2,0c-0.3,0-0.5-0.2-0.5-0.5c0-0.3,0.2-0.5,0.5-0.5c0,0,0,0,0,0c0.5,0,15.9,0,16.4,0
		c0.3,0,0.5,0.2,0.5,0.5c0,0.3-0.2,0.5-0.5,0.5C27,11.5,23,11.5,19,11.5z"/>
	<path fill="#0977DF" d="M36.1,17.5h-1.8c-0.5,0-0.9-0.3-1-0.8c0,0,0-0.1,0-0.1v-0.9c0-0.3,0.2-0.5,0.5-0.5c0.3,0,0.5,0.2,0.5,0.5
		v0.8c0,0,0,0,0.1,0h1.8c0.1,0,0.1,0,0.1-0.1V15c0,0,0-0.1,0-0.1c0.1-0.3,0.1-0.8,0.2-1.7c0.1-1.3,0-2.7,0-3.1
		c-0.1-0.1-0.1-0.2-0.2-0.3c0,0-0.1-0.1-0.1-0.3c-0.1-0.4-0.5-1.2-0.8-1.6c-0.2-0.2-0.1-0.5,0.1-0.7C35.7,7,36,7.1,36.1,7.3
		c0.4,0.5,0.7,1.4,0.9,1.8l0.1,0.2c0,0,0.1,0.1,0.1,0.1c0.3,0.4,0.2,3.7,0.2,3.8c-0.1,1-0.1,1.5-0.2,1.9v1.4
		C37.2,17,36.7,17.5,36.1,17.5z"/>
	<path fill="#0977DF" d="M36.4,7.6c-0.3,0-0.5-0.2-0.5-0.5c0,0,0-0.1,0-0.1c0,0,0,0,0,0l-0.4,0.1c-0.2,0.1-0.5-0.1-0.6-0.3
		c-0.6-1.4-1.7-3.2-2-3.7C32.3,3.1,30.5,3,27.9,3c-2.8,0-4.6,0.1-5,0.2c-0.2,0.1-0.5,0-0.6-0.1c-0.2-0.2-0.1-0.5,0.1-0.7
		C22.5,2.3,22.8,2,27.9,2c5.1,0,5.4,0.3,5.5,0.4c0.2,0.2,1.2,1.8,1.9,3.3c0.1-0.2,0.4-0.3,0.6-0.4c0.3,0,1.2-0.1,1.8,0.3
		C37.9,5.8,38,5.9,38,6.1c0,0.8-0.3,1.1-0.5,1.2C37.1,7.5,36.8,7.6,36.4,7.6C36.4,7.6,36.4,7.6,36.4,7.6z M36.2,6.2l0,0.4
		c0,0,0,0,0,0c0,0,0.1,0,0.1,0c0.2,0,0.5-0.1,0.7-0.2c0,0,0,0,0-0.1C36.8,6.3,36.5,6.2,36.2,6.2z M36,6.3C36,6.3,36,6.3,36,6.3
		C36,6.3,36,6.3,36,6.3z M37,6.1C37,6.1,37,6.1,37,6.1C37,6.1,37,6.1,37,6.1z M36.2,6.1L36.2,6.1C36.2,6.1,36.2,6.1,36.2,6.1z"/>
	<path fill="#0977DF" d="M3.7,17.5H1.9c-0.6,0-1.1-0.5-1.1-1.1v-1.3c-0.1-0.4-0.2-0.9-0.2-1.9c0-0.3-0.1-3.4,0.1-3.7
		c0.1-0.1,0.1-0.2,0.2-0.2C0.9,9.2,1,9.2,1,9c0.3-0.6,0.6-1.3,0.9-1.7C2,7.1,2.3,7,2.6,7.2c0.2,0.2,0.3,0.5,0.1,0.7
		C2.4,8.2,2.1,9,1.9,9.4C1.8,9.6,1.8,9.7,1.8,9.8c0,0.1-0.1,0.2-0.2,0.2c0,0.4-0.1,1.9,0,3.1c0.1,1,0.1,1.4,0.2,1.7
		c0,0.1,0,0.1,0,0.2v1.4c0,0.1,0,0.1,0.1,0.1h1.8c0,0,0.1,0,0.1,0v-0.8c0-0.3,0.2-0.5,0.5-0.5c0.3,0,0.5,0.2,0.5,0.5v0.9
		c0,0,0,0.1,0,0.1C4.6,17.2,4.2,17.5,3.7,17.5z"/>
	<path fill="#0977DF" d="M1.6,7.6C1.6,7.6,1.6,7.6,1.6,7.6c-0.4,0-0.8-0.1-1.1-0.3C0.3,7.2,0,6.9,0,6.1c0-0.2,0.1-0.3,0.2-0.5
		c0.6-0.4,1.5-0.4,1.8-0.4c0.2,0,0.5,0.2,0.6,0.4c0.7-1.5,1.7-3.1,1.9-3.3C4.7,2.3,5,2,10.1,2c5.1,0,5.4,0.3,5.5,0.4
		c0.2,0.2,0.2,0.5,0.1,0.7c-0.1,0.2-0.4,0.2-0.6,0.1c-0.3-0.1-2.2-0.2-5-0.2C7.5,3,5.6,3.1,5.2,3.2c-0.3,0.4-1.4,2.2-2,3.7
		C3.1,7.1,2.8,7.2,2.6,7.2L2.2,7.1c0,0,0,0,0,0c0,0,0,0.1,0,0.1C2.1,7.4,1.9,7.6,1.6,7.6z M1,6.3c0,0.1,0,0.1,0,0.1
		c0.1,0,0.4,0.1,0.6,0.1c0,0,0.1,0,0.1,0c0,0,0,0,0,0l0-0.4C1.5,6.2,1.3,6.3,1,6.3z M2,6.3C2,6.3,2,6.3,2,6.3C2,6.3,2,6.3,2,6.3z
		 M1,6.1C1,6.1,1,6.1,1,6.1C1,6.1,1,6.1,1,6.1z M1.8,6.1C1.8,6.1,1.8,6.1,1.8,6.1L1.8,6.1z"/>
</g>
</svg>
