<?xml version="1.0" encoding="utf-8"?>
<!-- Generator: Adobe Illustrator 18.1.1, SVG Export Plug-In . SVG Version: 6.00 Build 0)  -->
<svg version="1.1" id="Layer_1" xmlns="http://www.w3.org/2000/svg" xmlns:xlink="http://www.w3.org/1999/xlink" x="0px" y="0px"
	 viewBox="0 0 37 18" enable-background="new 0 0 37 18" xml:space="preserve">
<g>
	<path fill="#0977DF" d="M26.3,14.1C26.2,14.1,26.2,14.1,26.3,14.1c-1.5-0.1-3.4-0.2-4.2-0.2c-0.3,0-1.2,0-2.2,0
		c-2.3,0-5.7-0.1-6.5-0.1c-0.4,0-0.6,0-0.9,0.1c-0.3,0-0.5-0.2-0.5-0.5c0-0.3,0.2-0.5,0.5-0.5c0.2,0,0.5,0,0.9-0.1
		c0.9,0,4.2,0,6.6,0.1c1.1,0,1.9,0,2.2,0c0.8,0,2.7,0.1,4.2,0.2c0.3,0,0.5,0.3,0.5,0.5C26.7,13.9,26.5,14.1,26.3,14.1z"/>
	<path fill="#0977DF" d="M34.8,14.2c-0.3,0-0.5-0.2-0.5-0.5c0-0.3,0.2-0.5,0.4-0.6c0.8-0.1,1-0.2,1.1-0.2c0.1-0.2,0.5-2.4-0.8-3.7
		C33.2,7.4,28.3,7,28.3,7c-0.1,0-0.1,0-0.2-0.1l-0.6-0.3C26.2,6,23.6,4.6,22,3.9c-1.8-0.7-4.3-1-8.2-0.7C10.8,3.3,7,4.9,5.4,5.5
		C4.9,5.7,4.7,5.8,4.6,5.8C4.3,5.9,2.9,6,2.3,6c0,0.3,0,0.6-0.2,0.8C2,6.9,2,7,2,7c0,0.1-0.2,1.1-0.2,1.4c-0.1,0.5-0.3,1-0.6,1.2
		L1.1,9.8c0,0,0,0,0,0.1c-0.1,0.3,0,1.5,0.1,1.7c0.1,0.2,0.3,0.5,0.5,0.5l2.1,0.3c0.3,0,0.5,0.3,0.4,0.6c0,0.3-0.3,0.5-0.6,0.4
		l-2.1-0.3C0.8,13,0.4,12.4,0.2,12C0.1,11.5,0,10.1,0.1,9.7C0.2,9.3,0.3,9.1,0.5,9c0.2-0.1,0.3-0.4,0.3-0.6C0.8,8,1,6.9,1,6.8
		c0.1-0.2,0.1-0.3,0.2-0.5c0-0.1,0-0.3,0-0.4c-0.1-0.2,0-0.3,0-0.5C1.4,5.1,1.7,5.1,1.8,5C2.7,5,4.2,4.9,4.4,4.8
		c0.1,0,0.3-0.1,0.6-0.2c1.7-0.7,5.6-2.2,8.7-2.4c4.1-0.2,6.7,0,8.6,0.8C24,3.7,26.7,5.1,28,5.8L28.5,6c0.8,0.1,5.4,0.5,7.3,2.5
		c1.2,1.3,1.2,3,1.2,3.6c0,0.3-0.1,1.3-0.5,1.6C36.1,14,35.7,14.1,34.8,14.2C34.8,14.2,34.8,14.2,34.8,14.2z M2.2,5.6
		C2.2,5.6,2.2,5.6,2.2,5.6C2.2,5.6,2.2,5.6,2.2,5.6z"/>
	<path fill="#0977DF" d="M8,15.9c-1.7,0-3.1-1.4-3.1-3.1S6.3,9.6,8,9.6c1.7,0,3.1,1.4,3.1,3.1S9.7,15.9,8,15.9z M8,10.7
		c-1.2,0-2.1,1-2.1,2.1c0,1.2,0.9,2.1,2.1,2.1c1.2,0,2.1-1,2.1-2.1C10.1,11.6,9.2,10.7,8,10.7z"/>
	<path fill="#0977DF" d="M8,15.9c-1.7,0-3.1-1.4-3.1-3.1S6.3,9.6,8,9.6c1.7,0,3.1,1.4,3.1,3.1S9.7,15.9,8,15.9z M8,10.7
		c-1.2,0-2.1,1-2.1,2.1c0,1.2,0.9,2.1,2.1,2.1c1.2,0,2.1-1,2.1-2.1C10.1,11.6,9.2,10.7,8,10.7z"/>
	<path fill="#0977DF" d="M30.5,15.9c-1.7,0-3.1-1.4-3.1-3.1s1.4-3.1,3.1-3.1c1.7,0,3.1,1.4,3.1,3.1S32.2,15.9,30.5,15.9z M30.5,10.7
		c-1.2,0-2.1,1-2.1,2.1c0,1.2,0.9,2.1,2.1,2.1c1.2,0,2.1-1,2.1-2.1C32.5,11.6,31.6,10.7,30.5,10.7z"/>
</g>
</svg>
