<svg version="1.1" id="Layer_1" xmlns="http://www.w3.org/2000/svg" xmlns:xlink="http://www.w3.org/1999/xlink" x="0px" y="0px" viewBox="0 0 25 21" enable-background="new 0 0 25 21" xml:space="preserve">
                                <g>
                                <path fill="#0977DF" d="M13.7,20.9h-2.2c-0.2,0-0.4-0.1-0.5-0.3c-0.1-0.2-0.1-0.4,0-0.5c2.4-4.2,2.8-7.9,2.8-9.6l0-0.3
                                                C13.9,8,14,4.5,12,0.9c-0.1-0.2-0.1-0.4,0-0.5c0.1-0.2,0.3-0.3,0.5-0.3h0l2,0c0.2,0,0.3,0.1,0.5,0.2c0.5,0.8,0.8,1.6,1.2,2.5
                                                l0.3,0.7c0.8,2,1.2,4.4,1.1,7c0,1.8-0.4,3.6-1.2,5.7c-0.6,1.5-1.3,3-2.2,4.4C14.1,20.8,13.9,20.9,13.7,20.9z M12.4,19.8h1
                                                c0.8-1.2,1.4-2.5,1.9-3.9c0.7-2,1.1-3.7,1.1-5.4c0-2.4-0.3-4.7-1.1-6.5l-0.3-0.7c-0.3-0.8-0.6-1.5-0.9-2.1l-0.8,0
                                                c1.7,3.5,1.6,6.9,1.5,9l0,0.3C14.9,12.2,14.5,15.7,12.4,19.8z M11.4,16.5H8c-0.1,0-0.3-0.1-0.4-0.2c-0.1-0.1-0.2-0.3-0.2-0.4
                                                l0.1-2.9c0-0.3,0.3-0.5,0.6-0.5c0,0,0,0,0,0l3.4,0c0.1,0,0.3,0.1,0.4,0.2c0.1,0.1,0.2,0.3,0.2,0.4L12,16
                                                C12,16.3,11.7,16.5,11.4,16.5z M8.6,15.4h2.3l0-1.8l-2.3,0L8.6,15.4z M11.8,8.5L11.8,8.5l-3.4,0C8.3,8.5,8.1,8.5,8,8.3
                                                C7.9,8.2,7.8,8.1,7.8,8l0.1-2.9c0-0.3,0.3-0.5,0.6-0.5l0,0l3.4,0c0.1,0,0.3,0.1,0.4,0.2c0.1,0.1,0.2,0.3,0.2,0.4L12.4,8
                                                C12.4,8.3,12.1,8.5,11.8,8.5z M9,7.4l2.3,0l0-1.8L9,5.6L9,7.4z"></path>
                                        </g>
                                    </svg>