<svg version="1.1" id="Layer_1" xmlns="http://www.w3.org/2000/svg" xmlns:xlink="http://www.w3.org/1999/xlink" x="0px" y="0px" viewBox="0 0 25 21" enable-background="new 0 0 25 21" xml:space="preserve">
                                <g>
                                <path fill="#0977DF" d="M12.5,17.3c-0.3,0-0.5,0-0.8-0.1c-0.9-0.1-1.7-0.4-2.3-1c-0.6-0.5-1.1-1.1-1.4-1.9
                                                c-0.2-0.5-0.4-1.1-0.5-1.7c-0.1-0.5-0.1-1,0-1.6c0.1-0.9,0.3-1.8,0.6-2.7c0.5-1.3,1-2.3,1.8-3.2c0.4-0.5,0.9-0.9,1.4-1.2
                                                c0.7-0.4,1.5-0.4,2.2-0.1c0.5,0.2,1,0.6,1.5,1.1c0.7,0.8,1.3,1.7,1.7,2.9c0.3,0.8,0.6,1.7,0.7,2.5c0.1,0.5,0.1,1,0.1,1.5
                                                c0,0,0,0,0,0c0,1-0.2,1.9-0.7,2.8c-0.6,1.2-1.6,2.1-2.9,2.4C13.5,17.3,13,17.3,12.5,17.3z M12.5,4.7c-0.2,0-0.5,0.1-0.7,0.2
                                                c-0.4,0.2-0.8,0.5-1.1,1C10,6.7,9.5,7.6,9,8.8c-0.3,0.8-0.5,1.6-0.5,2.4c0,0.5,0,0.9,0,1.4c0.1,0.5,0.2,1,0.4,1.5
                                                c0.3,0.6,0.6,1.1,1.1,1.5c0.5,0.4,1.1,0.7,1.8,0.8c0.7,0.1,1.3,0.1,1.9-0.1c1-0.3,1.8-0.9,2.3-1.9c0.5-0.9,0.5-1.7,0.6-2.3
                                                c0-0.5,0-0.9-0.1-1.3c-0.1-0.8-0.3-1.5-0.6-2.3c-0.4-1-0.9-1.9-1.6-2.6c-0.4-0.4-0.8-0.7-1.1-0.9C12.9,4.7,12.7,4.7,12.5,4.7z"></path>
                                <path fill="#0977DF" d="M19.8,20H5.2C4,20,3,19,3,17.8V3.2C3,2,4,1,5.2,1h14.6C21,1,22,2,22,3.2v14.6C22,19,21,20,19.8,20z M5.2,2
                                                C4.5,2,4,2.5,4,3.2v14.6C4,18.5,4.5,19,5.2,19h14.6c0.7,0,1.2-0.5,1.2-1.2V3.2C21,2.5,20.5,2,19.8,2H5.2z"></path>
                                        </g>
                                    </svg>