<?xml version='1.0' encoding='iso-8859-1'?>
<svg version="1.1" xmlns="http://www.w3.org/2000/svg" viewBox="0 0 64 64" xmlns:xlink="http://www.w3.org/1999/xlink" enable-background="new 0 0 64 64">
  <g>
    <g>
      <path d="m62,20c0.056,0.185 0-0.017 0,0zm0,10v-10c0-1.105-0.895-2-2-2v-13c0-0.552-0.448-1-1-1h-51c-4.418,0-8,3.582-8,8 0,0.27 0.014,0.537 0.04,0.8-0.014,0.067-0.04,0.129-0.04,0.2v39c0,4.418 3.582,8 8,8h52c1.105,0 2-0.895 2-2v-10c1.105,0 2-0.895 2-2v-14c0-1.105-0.896-2-2-2zm-54-24h50v12h-2v-8c0-1.105-0.896-2-2-2h-46c-1.105,0-2,0.895-2,2v7.651c-2.329-0.824-4-3.04-4-5.651 0-3.314 2.686-6 6-6zm0,6v-2h46v2h-46zm46,2v4h-46v-4h46zm6,44h-52c-3.314,0-6-2.686-6-6v-34.721c1.466,1.665 3.607,2.721 6,2.721h52v10h-5c-4.971,0-9,4.029-9,9s4.029,9 9,9h5v10zm2-12h-7c-3.866,0-7-3.134-7-7s3.134-7 7-7h7v14zm-10-7c0,1.657 1.343,3 3,3s3-1.343 3-3-1.343-3-3-3-3,1.343-3,3zm4,0c0,0.552-0.448,1-1,1-0.552,0-1-0.448-1-1s0.448-1 1-1c0.552,0 1,0.448 1,1z"/>
    </g>
  </g>
</svg>
